<svg viewBox="0 0 1000 1000" xmlns="http://www.w3.org/2000/svg"><path d="m0-.02h1000v1000.03h-1000z" fill="#a21942"/><g fill="#fff"><path d="m194.3 236.09v-22c0-19.32-6.83-33.3-22.6-40.44 13.37-6.53 19.63-18.43 19.63-35.08v-8.34c0-31.52-16.35-48.47-47.58-48.47-30.92 0-47 17-47 48.47v8.34c0 16.36 6 28.55 19 35.08-15.76 7.14-22.31 21.12-22.31 40.44v22c0 30.62 14.58 52 50.27 52 36 0 50.55-21.42 50.55-52m-65.73-108c0-12.21 4.18-19.34 15.18-19.34 11.29 0 15.46 7.13 15.46 19.34v13.67c0 12.19-4.17 19.35-15.46 19.35-11 0-15.18-7.16-15.18-19.35zm31.87 111.56c0 12.2-4.46 20.82-16.65 20.82-11.9 0-16.36-8.62-16.36-20.82v-32.71c0-12.19 4.46-20.82 16.36-20.82 12.19 0 16.65 8.63 16.65 20.82z"/><path d="m694.16 492-101.64 96.67c-3.83 3.81-5.8 6.62-5.8 14.52v271a5.8 5.8 0 0 0 5.8 5.78h105a5.79 5.79 0 0 0 5.79-5.78v-379.77c0-3.2-2.5-9-9.14-2.44"/><path d="m401.34 618-101.65 96.63c-3.82 3.82-5.8 6.62-5.8 14.51v145a5.8 5.8 0 0 0 5.8 5.77h105a5.79 5.79 0 0 0 5.79-5.77v-253.76c0-3.21-2.53-9.06-9.14-2.43"/><path d="m740.36 374.72a2.84 2.84 0 0 0 -.86-2.2 3.06 3.06 0 0 0 -1.88-.83h-.56-.83l-77.83 17.64-1.41.15a3.14 3.14 0 0 0 -1.52.79 3 3 0 0 0 0 4.19l.88.88 17.78 17.77-176.36 176.36-81.45-81.47a2.32 2.32 0 0 0 -3.32 0l-22.1 22.11a0 0 0 0 0 0 0l-130.59 130.58a2.38 2.38 0 0 0 0 3.32l22.13 22.12a2.32 2.32 0 0 0 3.29 0l129-128.92 59.1 59.12a2.31 2.31 0 0 0 .19.28l22.11 22.08a2.31 2.31 0 0 0 3.31 0l200.11-200.15 18.66 18.65a2.91 2.91 0 0 0 4.15 0 2.8 2.8 0 0 0 .85-1.92v-.24l17.09-79.45z"/><path d="m548.33 634.92-49.18 49.58a2.35 2.35 0 0 1 -3.17-.12l-44.55-45.38c-8.16-8.12-9.92-1.53-9.92 1.66v233.51a5.77 5.77 0 0 0 5.76 5.78h105a5.79 5.79 0 0 0 5.77-5.78v-237.42c0-3.19-2.51-9.06-9.73-1.83"/><path d="m309.8 105.61v37.85c0 12.54-5.19 21.94-19.89 21.94h-21.22v-81.73h21.22c14.7 0 19.89 9.33 19.89 21.94zm-21.58 48.58c5.67 0 7.84-3.37 7.84-8.32v-42.79c0-4.83-2.17-8.2-7.84-8.2h-5.79v59.31z"/><path d="m318.48 83.67h32.79v11.21h-19v23.39h13.62v11.09h-13.67v24.83h19v11.21h-32.74z"/><path d="m358.26 144.31v-39.55c0-12.78 6-22.06 20.49-22.06 15.19 0 19.41 8.44 19.41 20.5v9.64h-12.53v-10.73c0-5.06-1.69-8-6.63-8s-7 3.5-7 8.44v43.89c0 4.94 2.05 8.44 7 8.44s6.63-3.14 6.63-8v-14.99h12.53v14.11c0 11.7-4.82 20.38-19.41 20.38s-20.49-9.38-20.49-22.07z"/><path d="m406.48 83.67h32.79v11.21h-19v23.39h13.63v11.09h-13.68v24.83h19v11.21h-32.74z"/><path d="m459 114.05v51.35h-11.53v-81.73h13.53l14.83 46.89v-46.89h11.45v81.73h-12.08z"/><path d="m494.36 83.67h36.53v11.21h-11.33v70.52h-13.87v-70.52h-11.33z"/><path d="m581.28 114.89-7.71 50.51h-12.9l-11-81.73h13.33l6.39 51.84h.12l6.87-51.84h11.21l7.59 51.84h.12l6.27-51.84h11.58l-10.65 81.73h-13l-8.08-50.51z"/><path d="m618.65 144.31v-39.55c0-12.78 6.27-22.06 20.74-22.06s20.85 9.28 20.85 22.06v39.55c0 12.66-6.27 22.06-20.85 22.06s-20.74-9.37-20.74-22.06zm27.85 2.17v-43.89c0-4.94-2.17-8.44-7.11-8.44s-7 3.5-7 8.44v43.89c0 4.94 2.17 8.44 7 8.44s7.11-3.5 7.11-8.44z"/><path d="m682.66 127.91v37.49h-13.74v-81.73h20c13.87 0 18.93 6.87 18.93 18.32v10.49c0 8.8-3.13 14-11 15.79l13.15 37.13h-14.44zm0-33v25.44h4.58c4.71 0 6.76-2.42 6.76-6.76v-12c0-4.46-2-6.63-6.76-6.63z"/><path d="m729.92 125.62v39.78h-13.74v-81.73h13.74v35.92l15-35.92h13.5l-15.91 36.77 16.27 45h-14.51z"/><path d="m777.9 165.4 15.43-81.73h15.67l15.56 81.73h-14.11l-2.53-14.94h-14.59l-2.41 14.94zm17.24-25.92h11l-5.42-32.79h-.13z"/><path d="m840.71 114.05v51.35h-11.58v-81.73h13.51l14.83 46.89v-46.89h11.45v81.73h-12.06z"/><path d="m919.07 105.61v37.85c0 12.54-5.19 21.94-19.9 21.94h-21.17v-81.73h21.21c14.67 0 19.86 9.33 19.86 21.94zm-21.58 48.58c5.66 0 7.83-3.37 7.83-8.32v-42.79c0-4.83-2.17-8.2-7.83-8.2h-5.79v59.31z"/><path d="m268.69 203.71h32.79v11.21h-19.05v23.39h13.63v11.09h-13.63v24.84h19.05v11.21h-32.79z"/><path d="m307.51 264.35v-39.54c0-12.78 6-22.06 20.49-22.06 15.19 0 19.41 8.43 19.41 20.49v9.65h-12.54v-10.73c0-5.07-1.68-8-6.63-8s-7 3.49-7 8.44v43.88c0 4.94 2.05 8.44 7 8.44s6.63-3.13 6.63-8v-14.99h12.54v14.07c0 11.69-4.82 20.37-19.41 20.37s-20.49-9.37-20.49-22.02z"/><path d="m354.88 264.35v-39.54c0-12.78 6.27-22.06 20.74-22.06s20.86 9.28 20.86 22.06v39.54c0 12.66-6.27 22.06-20.86 22.06s-20.74-9.41-20.74-22.06zm27.85 2.17v-43.88c0-4.95-2.17-8.44-7.11-8.44s-7 3.49-7 8.44v43.88c0 4.94 2.17 8.44 7 8.44s7.11-3.5 7.11-8.44z"/><path d="m415.88 234.09v51.36h-11.57v-81.74h13.5l14.83 46.9v-46.9h11.45v81.74h-12.09z"/><path d="m451.93 264.35v-39.54c0-12.78 6.27-22.06 20.73-22.06s20.86 9.28 20.86 22.06v39.54c0 12.66-6.27 22.06-20.86 22.06s-20.73-9.41-20.73-22.06zm27.85 2.17v-43.88c0-4.95-2.17-8.44-7.12-8.44s-7 3.49-7 8.44v43.88c0 4.94 2.17 8.44 7 8.44s7.12-3.5 7.12-8.44z"/><path d="m539.21 232.4h-.36l-9.29 53h-6.39l-10.24-53h-.25v53h-11.33v-81.69h16l8.92 46h.12l8-46h17.37v81.74h-12.55z"/><path d="m559.58 203.71h13.74v81.74h-13.74z"/><path d="m581 264.35v-39.54c0-12.78 6-22.06 20.49-22.06 15.19 0 19.41 8.43 19.41 20.49v9.65h-12.5v-10.73c0-5.07-1.69-8-6.63-8s-7 3.49-7 8.44v43.88c0 4.94 2.05 8.44 7 8.44s6.63-3.13 6.63-8v-14.99h12.54v14.07c0 11.69-4.82 20.37-19.41 20.37s-20.53-9.37-20.53-22.02z"/><path d="m665.06 241.81h19.53v43.64h-9.88v-8.92c-1.81 6.15-5.67 9.88-13.14 9.88-11.82 0-17.24-9.4-17.24-22.06v-39.54c0-12.78 6.14-22.06 20.61-22.06 15.19 0 19.65 8.43 19.65 20.49v7.23h-12.54v-8.31c0-5.07-1.93-8-6.87-8s-7.11 3.49-7.11 8.44v43.88c0 4.94 2 8.44 6.75 8.44 4.46 0 6.75-2.53 6.75-7.84v-14.42h-6.51z"/><path d="m706.17 248v37.49h-13.75v-81.78h20c13.86 0 18.93 6.87 18.93 18.32v10.49c0 8.8-3.14 14-11 15.8l13.15 37.13h-14.43zm0-33v25.44h4.58c4.7 0 6.75-2.41 6.75-6.75v-12.14c0-4.46-2-6.63-6.75-6.63z"/><path d="m737.63 264.35v-39.54c0-12.78 6.27-22.06 20.74-22.06s20.85 9.28 20.85 22.06v39.54c0 12.66-6.26 22.06-20.85 22.06s-20.74-9.41-20.74-22.06zm27.85 2.17v-43.88c0-4.95-2.17-8.44-7.11-8.44s-7 3.49-7 8.44v43.88c0 4.94 2.17 8.44 7 8.44s7.11-3.5 7.11-8.44z"/><path d="m814.42 234.93-7.71 50.52h-12.9l-11-81.74h13.29l6.39 51.84h.12l6.87-51.84h11.21l7.6 51.84h.12l6.27-51.84h11.57l-10.61 81.74h-13l-8.08-50.52z"/><path d="m850.47 203.71h36.53v11.21h-11.33v70.53h-13.87v-70.53h-11.33z"/><path d="m918.22 249.4h-13.22v36h-13.79v-81.69h13.79v34.6h13.26v-34.6h13.86v81.74h-13.9z"/></g></svg>